<svg xmlns="http://www.w3.org/2000/svg" width="192" height="192" viewBox="0 0 192 192">
  <defs>
    <linearGradient id="g" x1="0" x2="1" y1="0" y2="1">
      <stop offset="0" stop-color="#00e5ff"/>
      <stop offset="1" stop-color="#00bcd4"/>
    </linearGradient>
  </defs>
  <rect rx="36" ry="36" width="192" height="192" fill="#040405"/>
  <rect x="20" y="18" width="152" height="156" rx="20" fill="#071018"/>
  <rect x="28" y="28" width="136" height="48" rx="10" fill="black" opacity="0.06"/>
  <g fill="url(#g)" transform="translate(22,82)">
    <!-- four buttons grid -->
    <rect x="0" y="0" width="36" height="36" rx="8" opacity="0.12"></rect>
    <rect x="42" y="0" width="36" height="36" rx="8" opacity="0.12"></rect>
    <rect x="84" y="0" width="36" height="36" rx="8" opacity="0.12"></rect>
    <rect x="126" y="0" width="36" height="36" rx="8" opacity="0.12"></rect>

    <rect x="0" y="44" width="36" height="36" rx="8" opacity="0.12"></rect>
    <rect x="42" y="44" width="36" height="36" rx="8" opacity="0.12"></rect>
    <rect x="84" y="44" width="36" height="36" rx="8" opacity="0.12"></rect>
    <rect x="126" y="44" width="36" height="36" rx="8" opacity="0.12"></rect>
  </g>
  <!-- big neon = -->
  <rect x="118" y="122" width="46" height="34" rx="8" fill="#00ff80" />
  <text x="141" y="146" font-size="18" font-weight="700" text-anchor="middle" fill="#02110a">=</text>

  <!-- title small -->
  <text x="96" y="64" font-size="20" font-weight="700" text-anchor="middle" fill="url(#g)">Anubhav</text>
</svg>
